<svg width="17" height="17" viewBox="0 0 17 17" fill="none" xmlns="http://www.w3.org/2000/svg">
<path d="M12.0417 2.125C12.2278 1.93896 12.4486 1.79139 12.6917 1.69071C12.9348 1.59002 13.1953 1.5382 13.4584 1.5382C13.7215 1.5382 13.982 1.59002 14.2251 1.69071C14.4682 1.79139 14.689 1.93896 14.8751 2.125C15.0611 2.31104 15.2087 2.5319 15.3094 2.77498C15.4101 3.01805 15.4619 3.27857 15.4619 3.54167C15.4619 3.80477 15.4101 4.06529 15.3094 4.30836C15.2087 4.55144 15.0611 4.7723 14.8751 4.95834L5.31258 14.5208L1.41675 15.5833L2.47925 11.6875L12.0417 2.125Z" stroke="#646464" stroke-width="1.5" stroke-linecap="round" stroke-linejoin="round"/>
</svg>
